<svg width="24" height="24" viewBox="0 0 24 24" fill="none" xmlns="http://www.w3.org/2000/svg">
<path d="M16.5088 16.8447C16.6563 16.3379 16.5996 15.874 16.3535 15.5293C16.1289 15.2129 15.749 15.0303 15.292 15.0088L6.6328 14.8965C6.60636 14.8969 6.58025 14.8906 6.55693 14.8781C6.53361 14.8657 6.51385 14.8475 6.4995 14.8252C6.4712 14.7832 6.4644 14.7266 6.4785 14.6699C6.5063 14.5859 6.5908 14.5215 6.6821 14.5137L15.418 14.4014C16.4531 14.3525 17.5781 13.5146 17.9717 12.4878L18.4707 11.1865C18.4922 11.1304 18.5 11.0737 18.4854 11.0185C17.9229 8.47224 15.6504 6.57324 12.9355 6.57324C10.4316 6.57324 8.3071 8.19094 7.5479 10.4346C7.0552 10.0688 6.4292 9.87214 5.7539 9.93564C4.5513 10.0546 3.5874 11.0186 3.4678 12.2212C3.4395 12.5312 3.4609 12.834 3.5313 13.1152C1.5683 13.171 0 14.7754 0 16.752C0 16.9268 0.0142 17.1035 0.0352 17.2793C0.0493 17.3623 0.1196 17.4268 0.2041 17.4268H16.1855C16.2764 17.4268 16.3613 17.3623 16.3887 17.2715L16.5087 16.8447H16.5088ZM19.2656 11.2813C19.1885 11.2813 19.1045 11.2813 19.0273 11.2925C18.9707 11.2925 18.9219 11.334 18.9003 11.3901L18.5625 12.5645C18.415 13.0713 18.4707 13.5352 18.7168 13.8809C18.9424 14.1973 19.3223 14.3789 19.7793 14.4004L21.623 14.5137C21.6787 14.5137 21.7285 14.54 21.7559 14.584C21.7842 14.627 21.791 14.6914 21.7773 14.7402C21.749 14.8242 21.6641 14.8887 21.5733 14.8955L19.6523 15.0078C18.6113 15.0566 17.4941 15.8945 17.0996 16.9218L16.959 17.2803C16.9307 17.3516 16.9805 17.4219 17.0576 17.4219H23.6553C23.7324 17.4219 23.8027 17.373 23.8243 17.2959C23.9365 16.8877 24 16.4589 24 16.0156C24 13.4131 21.875 11.2886 19.2656 11.2886" fill="black"/>
</svg>
