<svg width="24" height="24" viewBox="0 0 24 24" fill="none" xmlns="http://www.w3.org/2000/svg">
<path d="M1.81139 10.4651C1.76465 10.4651 1.75296 10.4417 1.77633 10.4066L2.02172 10.0911C2.04509 10.0561 2.10352 10.0327 2.15026 10.0327H6.32187C6.36861 10.0327 6.3803 10.0678 6.35693 10.1028L6.15828 10.4066C6.13491 10.4417 6.07648 10.4768 6.04143 10.4768L1.81139 10.4651Z" fill="black"/>
<path d="M0.0467408 11.54C9.75088e-08 11.54 -0.0116852 11.5166 0.0116852 11.4816L0.257074 11.1661C0.280444 11.131 0.33887 11.1077 0.385611 11.1077H5.71406C5.7608 11.1077 5.78417 11.1427 5.77248 11.1778L5.679 11.4582C5.66732 11.505 5.62057 11.5283 5.57383 11.5283L0.0467408 11.54Z" fill="black"/>
<path d="M2.87462 12.615C2.82788 12.615 2.8162 12.5799 2.83957 12.5449L3.00316 12.2527C3.02653 12.2177 3.07327 12.1826 3.12001 12.1826H5.45705C5.50379 12.1826 5.52716 12.2177 5.52716 12.2644L5.50379 12.5449C5.50379 12.5916 5.45705 12.6267 5.42199 12.6267L2.87462 12.615Z" fill="black"/>
<path d="M15.0038 10.2544C14.2677 10.4414 13.7652 10.5816 13.0407 10.7685C12.8655 10.8153 12.8538 10.827 12.7019 10.6517C12.5266 10.453 12.398 10.3245 12.1527 10.2077C11.4165 9.84542 10.7037 9.95058 10.0376 10.3829C9.24305 10.8971 8.83407 11.6566 8.84575 12.6031C8.85744 13.5379 9.50012 14.3092 10.4233 14.4377C11.2178 14.5429 11.8839 14.2624 12.4097 13.6665C12.5149 13.5379 12.6084 13.3977 12.7252 13.2341C12.3046 13.2341 11.7787 13.2341 10.47 13.2341C10.2246 13.2341 10.1662 13.0822 10.248 12.8836C10.3999 12.5213 10.6803 11.9137 10.8439 11.6099C10.879 11.5398 10.9608 11.4229 11.136 11.4229C11.732 11.4229 13.9288 11.4229 15.3895 11.4229C15.3661 11.7384 15.3661 12.0539 15.3193 12.3694C15.1908 13.2108 14.8753 13.982 14.3612 14.6597C13.5198 15.7698 12.4214 16.4592 11.0309 16.6462C9.88574 16.7981 8.82238 16.5761 7.88757 15.875C7.02286 15.2206 6.53209 14.3559 6.40355 13.2809C6.25164 12.0072 6.62557 10.862 7.39679 9.8571C8.22644 8.77038 9.32485 8.08095 10.6686 7.83556C11.767 7.63692 12.8187 7.76545 13.7652 8.40814C14.3845 8.81712 14.8286 9.37801 15.1207 10.0557C15.1908 10.1609 15.1441 10.2193 15.0038 10.2544Z" fill="black"/>
<path d="M18.8716 16.7165C17.8083 16.6931 16.8384 16.3893 16.0204 15.6882C15.331 15.0923 14.8987 14.3327 14.7584 13.433C14.5481 12.1125 14.9103 10.944 15.7049 9.90404C16.558 8.78226 17.5862 8.198 18.9768 7.95261C20.1687 7.74228 21.2905 7.85913 22.3071 8.54855C23.2302 9.17955 23.8028 10.0326 23.9547 11.1544C24.1533 12.7319 23.6976 14.0172 22.6109 15.1156C21.8397 15.8985 20.8932 16.3893 19.8064 16.6113C19.4909 16.6698 19.1754 16.6814 18.8716 16.7165ZM21.6527 11.9957C21.641 11.8438 21.641 11.7269 21.6176 11.6101C21.4073 10.4532 20.344 9.79887 19.2339 10.0559C18.1471 10.3013 17.446 10.9908 17.189 12.0892C16.9786 13.0006 17.4227 13.9237 18.264 14.2977C18.9067 14.5781 19.5494 14.5431 20.1687 14.2276C21.0918 13.7485 21.5943 13.0006 21.6527 11.9957Z" fill="black"/>
</svg>
