<svg width="24" height="24" viewBox="0 0 24 24" fill="none" xmlns="http://www.w3.org/2000/svg">
<path d="M1.81127 10.4646C1.76453 10.4646 1.75284 10.4412 1.77621 10.4062L2.0216 10.0907C2.04497 10.0556 2.1034 10.0322 2.15014 10.0322H6.32175C6.36849 10.0322 6.38017 10.0673 6.3568 10.1023L6.15816 10.4062C6.13479 10.4412 6.07636 10.4763 6.0413 10.4763L1.81127 10.4646Z" fill="#00ACD7"/>
<path d="M0.0467408 11.5398C9.75088e-08 11.5398 -0.0116852 11.5164 0.0116852 11.4813L0.257074 11.1658C0.280444 11.1308 0.33887 11.1074 0.385611 11.1074H5.71406C5.7608 11.1074 5.78417 11.1425 5.77248 11.1775L5.679 11.458C5.66732 11.5047 5.62057 11.5281 5.57383 11.5281L0.0467408 11.5398Z" fill="#00ACD7"/>
<path d="M2.87462 12.6147C2.82788 12.6147 2.8162 12.5797 2.83957 12.5446L3.00316 12.2525C3.02653 12.2174 3.07327 12.1824 3.12001 12.1824H5.45705C5.50379 12.1824 5.52716 12.2174 5.52716 12.2642L5.50379 12.5446C5.50379 12.5914 5.45705 12.6264 5.42199 12.6264L2.87462 12.6147Z" fill="#00ACD7"/>
<path d="M15.0038 10.2542C14.2677 10.4411 13.7652 10.5813 13.0407 10.7683C12.8655 10.815 12.8538 10.8267 12.7019 10.6514C12.5266 10.4528 12.398 10.3243 12.1527 10.2074C11.4165 9.84517 10.7037 9.95034 10.0376 10.3827C9.24305 10.8968 8.83407 11.6564 8.84575 12.6029C8.85744 13.5377 9.50012 14.3089 10.4233 14.4374C11.2178 14.5426 11.8839 14.2622 12.4097 13.6662C12.5149 13.5377 12.6084 13.3975 12.7252 13.2339C12.3046 13.2339 11.7787 13.2339 10.47 13.2339C10.2246 13.2339 10.1662 13.082 10.248 12.8833C10.3999 12.5211 10.6803 11.9134 10.8439 11.6096C10.879 11.5395 10.9608 11.4227 11.1361 11.4227C11.732 11.4227 13.9288 11.4227 15.3895 11.4227C15.3661 11.7382 15.3661 12.0537 15.3193 12.3692C15.1908 13.2105 14.8753 13.9817 14.3612 14.6595C13.5198 15.7696 12.4214 16.459 11.0309 16.6459C9.88574 16.7979 8.82238 16.5758 7.88757 15.8747C7.02286 15.2204 6.53209 14.3557 6.40355 13.2806C6.25164 12.0069 6.62557 10.8618 7.39679 9.85686C8.22644 8.77013 9.32485 8.08071 10.6686 7.83532C11.7671 7.63667 12.8187 7.76521 13.7652 8.40789C14.3845 8.81687 14.8286 9.37776 15.1207 10.0555C15.1908 10.1607 15.1441 10.2191 15.0038 10.2542Z" fill="#00ACD7"/>
<path d="M18.8716 16.7163C17.8083 16.6929 16.8384 16.3891 16.0204 15.688C15.331 15.092 14.8987 14.3325 14.7584 13.4327C14.5481 12.1123 14.9103 10.9438 15.7049 9.90379C16.558 8.78202 17.5862 8.19776 18.9768 7.95237C20.1687 7.74203 21.2905 7.85888 22.3071 8.54831C23.2302 9.17931 23.8028 10.0323 23.9547 11.1541C24.1533 12.7316 23.6976 14.017 22.6109 15.1154C21.8397 15.8983 20.8932 16.3891 19.8064 16.6111C19.4909 16.6695 19.1754 16.6812 18.8716 16.7163ZM21.6527 11.9954C21.641 11.8435 21.641 11.7267 21.6176 11.6098C21.4073 10.453 20.344 9.79863 19.2339 10.0557C18.1471 10.3011 17.446 10.9905 17.189 12.0889C16.9786 13.0004 17.4227 13.9235 18.264 14.2974C18.9067 14.5779 19.5494 14.5428 20.1687 14.2273C21.0918 13.7482 21.5943 13.0004 21.6527 11.9954Z" fill="#00ACD7"/>
</svg>
