<svg width="24" height="24" viewBox="0 0 24 24" fill="none" xmlns="http://www.w3.org/2000/svg">
<path d="M8.70126 18.56C8.70126 18.56 7.78426 19.094 9.35426 19.274C11.2563 19.492 12.2283 19.461 14.3233 19.063C14.3233 19.063 14.8753 19.409 15.6443 19.709C10.9453 21.722 5.01126 19.591 8.70126 18.56V18.56ZM8.12626 15.933C8.12626 15.933 7.09826 16.694 8.66826 16.857C10.7003 17.066 12.3043 17.084 15.0813 16.549C15.0813 16.549 15.4653 16.938 16.0683 17.151C10.3893 18.812 4.06126 17.281 8.12626 15.933ZM12.9663 11.475C14.1243 12.808 12.6623 14.008 12.6623 14.008C12.6623 14.008 15.6013 12.49 14.2513 10.59C12.9903 8.818 12.0233 7.938 17.2583 4.902C17.2583 4.901 9.04226 6.953 12.9663 11.475V11.475ZM19.1803 20.504C19.1803 20.504 19.8593 21.063 18.4333 21.495C15.7213 22.317 7.14526 22.564 4.76426 21.528C3.90826 21.155 5.51426 20.638 6.01826 20.53C6.54526 20.416 6.84626 20.437 6.84626 20.437C5.89326 19.766 0.690258 21.754 4.20326 22.324C13.7833 23.877 21.6653 21.624 19.1803 20.504ZM9.14226 13.21C9.14226 13.21 4.78026 14.246 7.59826 14.622C8.78726 14.781 11.1593 14.745 13.3683 14.56C15.1743 14.408 16.9863 14.083 16.9863 14.083C16.9863 14.083 16.3493 14.355 15.8883 14.67C11.4593 15.835 2.90226 15.293 5.36626 14.102C7.44826 13.096 9.14226 13.21 9.14226 13.21ZM16.9663 17.584C21.4693 15.244 19.3873 12.995 17.9343 13.299C17.5793 13.373 17.4193 13.437 17.4193 13.437C17.4193 13.437 17.5513 13.23 17.8043 13.14C20.6793 12.129 22.8903 16.121 16.8763 17.702C16.8763 17.701 16.9463 17.64 16.9663 17.584ZM14.2513 0C14.2513 0 16.7453 2.494 11.8863 6.33C7.99026 9.407 10.9983 11.162 11.8853 13.166C9.61126 11.113 7.94226 9.308 9.06126 7.627C10.7053 5.158 15.2583 3.962 14.2513 0V0ZM9.58426 23.924C13.9063 24.201 20.5433 23.771 20.7003 21.726C20.7003 21.726 20.3983 22.501 17.1283 23.117C13.4403 23.811 8.88926 23.73 6.19126 23.285C6.19126 23.284 6.74426 23.742 9.58426 23.924" fill="#EA611B"/>
</svg>
