<svg width="24" height="24" viewBox="0 0 24 24" fill="none" xmlns="http://www.w3.org/2000/svg">
<g clip-path="url(#clip0)">
<path d="M5.56001 4.23449C5.28376 4.23449 5.0964 4.26875 4.90183 4.31525V4.34706H4.93546C5.06517 4.60157 5.28616 4.78756 5.44951 5.01514C5.57922 5.277 5.68972 5.53885 5.81943 5.79825L5.85306 5.76154C6.07886 5.60003 6.18936 5.34062 6.18936 4.94662C6.09327 4.8316 6.07886 4.71659 5.99719 4.60402C5.9011 4.44005 5.69452 4.3593 5.56481 4.22959L5.56001 4.23449ZM21.94 18.4527C20.6548 18.4185 19.658 18.5506 18.8244 18.9128C18.5842 19.0107 18.1999 19.0107 18.1663 19.3215C18.2984 19.4512 18.3176 19.6641 18.4305 19.8452C18.6227 20.1731 18.9541 20.6111 19.2616 20.8412C19.5979 21.1104 19.9342 21.3698 20.2873 21.5998C20.9119 21.9914 21.6205 22.2238 22.233 22.6178C22.5813 22.8479 22.9368 23.1391 23.2899 23.3838C23.4653 23.5062 23.5782 23.7264 23.804 23.8047V23.7558C23.6935 23.609 23.6599 23.3961 23.5518 23.2321C23.3908 23.0681 23.2299 22.9213 23.0714 22.7598C22.5997 22.1266 22.0369 21.5697 21.4019 21.1079C20.8878 20.7506 19.7637 20.2514 19.5523 19.6518L19.521 19.6176C19.8718 19.5858 20.2897 19.4561 20.626 19.3582C21.1713 19.2113 21.6709 19.2432 22.2354 19.0988C22.49 19.0327 22.7471 18.9519 23.0041 18.8687V18.7219C22.7158 18.4282 22.4997 18.0293 22.2018 17.7553C21.3704 17.0149 20.4838 16.3415 19.5499 15.7412C19.0454 15.4133 18.4065 15.2028 17.8756 14.9239C17.6834 14.826 17.3616 14.777 17.2511 14.6131C16.9628 14.2558 16.7947 13.781 16.5905 13.3552C16.1188 12.423 15.6805 11.4737 15.2765 10.5091C14.9883 9.86794 14.8129 9.22922 14.4598 8.64189C12.8024 5.85943 11.008 4.17331 8.24796 2.5239C7.65464 2.18129 6.94362 2.03446 6.19176 1.85336C5.79061 1.83379 5.38945 1.80442 4.9907 1.78729C4.72647 1.67227 4.47185 1.36148 4.24605 1.2122C3.33325 0.62487 0.96958 -0.647673 0.29699 1.036C-0.135389 2.09808 0.938352 3.14548 1.31068 3.68387C1.58692 4.05829 1.93523 4.48655 2.1274 4.90747C2.24029 5.19134 2.27152 5.48256 2.38442 5.77867C2.63904 6.49815 2.88166 7.30083 3.21795 7.97381C3.39331 8.31642 3.58547 8.67615 3.81127 8.9845C3.94099 9.16315 4.16198 9.24635 4.21242 9.54002C3.98663 9.87283 3.97221 10.3574 3.8425 10.7636C3.26599 12.6161 3.49179 14.9067 4.30851 16.2698C4.56553 16.676 5.17807 17.5766 5.99719 17.2316C6.71782 16.9379 6.55928 16.008 6.76586 15.1881C6.8139 14.9924 6.78268 14.8627 6.88116 14.7305V14.7672C7.10696 15.2273 7.33276 15.6654 7.53934 16.1254C8.03417 16.9281 8.89893 17.7602 9.62197 18.3157C10.0063 18.6093 10.3114 19.1183 10.7918 19.2994V19.2505H10.7558C10.6525 19.1086 10.5155 19.04 10.3858 18.925C10.0813 18.6213 9.80018 18.294 9.5451 17.9461C8.8683 17.004 8.26818 16.0071 7.75072 14.9655C7.48649 14.4515 7.2655 13.8985 7.05412 13.3919C6.95803 13.1961 6.95803 12.9025 6.79709 12.8046C6.55688 13.1619 6.20377 13.4727 6.02842 13.9132C5.72335 14.618 5.69212 15.4843 5.57682 16.3848C5.51196 16.402 5.54319 16.3848 5.51196 16.4191C4.99791 16.2918 4.82256 15.7486 4.63039 15.2934C4.14997 14.131 4.0707 12.2637 4.48626 10.9251C4.59916 10.5825 5.07958 9.50086 4.88742 9.17294C4.78653 8.86214 4.46945 8.6835 4.2941 8.43143C4.06852 8.10337 3.87541 7.75334 3.71759 7.38648C3.33325 6.47123 3.14108 5.45809 2.72312 4.54283C2.53095 4.11947 2.19466 3.67653 1.92082 3.28742C1.61575 2.84693 1.27945 2.53613 1.03684 2.01488C0.957571 1.83623 0.844671 1.54012 0.971982 1.34435C1.00561 1.2122 1.07287 1.16081 1.19778 1.1241C1.40917 0.947901 2.00249 1.17794 2.21147 1.27582C2.80479 1.52054 3.30443 1.75058 3.80166 2.09319C4.02746 2.2547 4.27007 2.5655 4.55833 2.64626H4.89462C5.40867 2.76128 5.98758 2.68052 6.468 2.8249C7.32075 3.10388 8.08942 3.51012 8.77883 3.95061C10.9031 5.33307 12.6309 7.26302 13.7872 9.54491C13.9794 9.92178 14.0635 10.2668 14.2388 10.6584C14.5751 11.466 14.9907 12.2809 15.3318 13.0615C15.6681 13.8324 15.9923 14.618 16.4752 15.2567C16.7154 15.5993 17.681 15.7779 18.1134 15.9566C18.4329 16.1034 18.9301 16.238 19.2184 16.4166C19.7709 16.7593 20.3089 17.1508 20.8278 17.5277C21.092 17.7137 21.8919 18.1223 21.94 18.4527Z" fill="#4479A1"/>
<path fill-rule="evenodd" clip-rule="evenodd" d="M5.55999 4.23444C5.56003 4.23444 5.55996 4.23444 5.55999 4.23444L5.5648 4.22955C5.56738 4.23214 5.57 4.2347 5.57264 4.23725C5.62177 4.28456 5.68092 4.32553 5.74059 4.36685C5.83888 4.43493 5.93858 4.50398 5.99718 4.60397C6.03439 4.65526 6.05764 4.70706 6.08101 4.75913C6.10894 4.82135 6.13704 4.88397 6.18934 4.94658C6.18934 5.26547 6.11696 5.49619 5.96964 5.6582C5.93495 5.69636 5.89609 5.73071 5.85305 5.7615L5.81942 5.7982C5.79906 5.75749 5.77918 5.71672 5.75962 5.6759C5.74896 5.65366 5.7384 5.6314 5.72791 5.60913C5.69458 5.53835 5.66198 5.46743 5.62933 5.39642C5.57099 5.2695 5.51251 5.1423 5.44949 5.0151C5.38686 4.92784 5.31576 4.84669 5.24457 4.76545C5.16649 4.67634 5.08831 4.58711 5.02111 4.48959C4.9898 4.44414 4.96087 4.39689 4.93545 4.34701H4.90182V4.3152C4.91305 4.31252 4.92425 4.30988 4.93545 4.30728C4.97975 4.297 5.02397 4.28743 5.06924 4.27882C5.08508 4.27581 5.10106 4.27292 5.11721 4.27016C5.24538 4.24822 5.38487 4.23445 5.55999 4.23444ZM4.82128 4.54375H4.70508V4.15994L4.85609 4.12386C5.04085 4.07971 5.22453 4.04505 5.4764 4.03874L5.56346 3.95L5.7039 4.09043C5.74092 4.12744 5.78398 4.15734 5.84272 4.19811C5.8625 4.21184 5.88405 4.2268 5.90774 4.24368C5.98824 4.30102 6.09127 4.38006 6.1619 4.49611C6.20858 4.56233 6.23841 4.62909 6.26023 4.67794C6.26263 4.68332 6.26494 4.68849 6.26717 4.69341C6.29178 4.74794 6.31045 4.78468 6.34033 4.82045L6.38608 4.87522V4.94658C6.38608 5.36976 6.26766 5.69699 5.985 5.9087L5.77134 6.14192L5.64346 5.88619C5.57695 5.75319 5.51562 5.62006 5.45571 5.48975L5.45103 5.47957C5.39466 5.35695 5.33944 5.23685 5.28047 5.11713C5.22635 5.04329 5.1668 4.97531 5.10094 4.90011C5.0783 4.87426 5.05491 4.84756 5.03075 4.81948C4.96022 4.73754 4.88603 4.64688 4.82128 4.54375ZM18.1662 19.3214C18.1914 19.089 18.4127 19.0304 18.6232 18.9747C18.6942 18.9559 18.7639 18.9374 18.8244 18.9127C19.6127 18.5702 20.547 18.4334 21.7331 18.4486C21.8012 18.4494 21.8702 18.4508 21.94 18.4527C21.9306 18.3885 21.8929 18.3214 21.8363 18.2535C21.6649 18.048 21.32 17.8357 21.0634 17.6777C20.9683 17.6192 20.8853 17.5681 20.8278 17.5276L20.809 17.514C20.296 17.1413 19.7642 16.7551 19.2184 16.4166C19.0427 16.3077 18.7894 16.2152 18.5461 16.1263C18.3901 16.0694 18.2382 16.0139 18.1134 15.9565C17.9853 15.9036 17.8105 15.8507 17.6216 15.7935C17.1727 15.6577 16.6442 15.4978 16.4752 15.2566C16.0292 14.6667 15.7185 13.9515 15.4087 13.2384C15.3831 13.1794 15.3575 13.1204 15.3318 13.0615C15.1834 12.7219 15.0209 12.3758 14.857 12.0267C14.6441 11.5732 14.4288 11.1146 14.2388 10.6583C14.1625 10.488 14.1035 10.3264 14.0453 10.1672C13.9698 9.96053 13.8958 9.75777 13.7872 9.54487C12.6309 7.26298 10.9031 5.33303 8.77882 3.95057C8.08941 3.51007 7.32074 3.10384 6.46799 2.82486C6.21047 2.74746 5.92464 2.73476 5.63568 2.72191C5.38557 2.7108 5.13311 2.69958 4.89461 2.64621H4.55831C4.36527 2.59213 4.19269 2.43487 4.03193 2.28837C3.95264 2.21612 3.87623 2.14649 3.80165 2.09315C3.30442 1.75054 2.80478 1.5205 2.21146 1.27578C2.00247 1.17789 1.40915 0.947857 1.19777 1.12406C1.07286 1.16076 1.0056 1.21215 0.97197 1.3443C0.844659 1.54008 0.957559 1.83619 1.03683 2.01483C1.19699 2.35894 1.39797 2.61132 1.60385 2.86985C1.70984 3.00295 1.81712 3.13767 1.9208 3.28738C1.9635 3.34805 2.00772 3.41003 2.05268 3.47305C2.29602 3.81414 2.5609 4.18544 2.72311 4.54279C2.94679 5.03261 3.1058 5.55046 3.26421 6.06634C3.4018 6.51441 3.53893 6.961 3.71758 7.38644C3.8754 7.7533 4.06851 8.10332 4.29408 8.43139C4.361 8.52758 4.44855 8.61307 4.53685 8.6993C4.67995 8.83903 4.82501 8.98069 4.8874 9.17289C5.04388 9.43991 4.75442 10.2067 4.58054 10.6672C4.54087 10.7723 4.50722 10.8614 4.48625 10.9251C4.07069 12.2637 4.14996 14.1309 4.63038 15.2933C4.64849 15.3362 4.66645 15.3799 4.68456 15.4239C4.8586 15.8472 5.04635 16.3038 5.51195 16.419C5.52609 16.4035 5.52743 16.3986 5.53067 16.3962C5.5346 16.3933 5.54131 16.3942 5.57681 16.3848C5.60173 16.1901 5.62272 15.9971 5.6434 15.8069C5.7184 15.1173 5.78927 14.4656 6.0284 13.9131C6.14289 13.6255 6.33315 13.3932 6.51829 13.1672C6.61672 13.047 6.7137 12.9286 6.79708 12.8045C6.80264 12.8079 6.808 12.8115 6.81319 12.8154C6.86196 12.8514 6.89468 12.9071 6.92017 12.9723C6.94184 13.0277 6.95827 13.09 6.97489 13.153C6.99683 13.2362 7.01909 13.3205 7.0541 13.3919C7.08367 13.4627 7.11343 13.5345 7.14347 13.6069C7.32816 14.0524 7.52344 14.5234 7.75071 14.9654C8.26817 16.0071 8.86829 17.004 9.54509 17.9461C9.58088 17.9949 9.61719 18.0433 9.654 18.0913C9.67723 18.1216 9.70066 18.1517 9.7243 18.1817C9.72439 18.1818 9.7242 18.1816 9.7243 18.1817C9.92999 18.4424 10.1511 18.6909 10.3858 18.925C10.4306 18.9646 10.4761 18.9988 10.5209 19.0323C10.606 19.096 10.6881 19.1575 10.7558 19.2505H10.7918V19.2994C10.7797 19.2948 10.7677 19.2901 10.7558 19.2851C10.7458 19.2809 10.7358 19.2766 10.726 19.2721C10.7107 19.2652 10.6957 19.258 10.6808 19.2505C10.5508 19.1847 10.4334 19.0956 10.3229 18.996C10.3215 18.9947 10.3201 18.9935 10.3187 18.9922C10.2175 18.9005 10.1218 18.8001 10.0271 18.7006C9.89433 18.5612 9.76352 18.4238 9.62196 18.3156C9.58595 18.288 9.54959 18.2596 9.51295 18.2306C8.81371 17.6773 8.00952 16.8881 7.53933 16.1254C7.38776 15.7878 7.22585 15.4621 7.06119 15.1309C7.03918 15.0866 7.01712 15.0422 6.99502 14.9977C6.95713 14.9214 6.91914 14.8446 6.88115 14.7672V14.7305C6.87203 14.7427 6.86402 14.7549 6.85696 14.7672C6.85385 14.7726 6.85093 14.778 6.84818 14.7834C6.81368 14.8511 6.8057 14.9205 6.79647 15.0009C6.79527 15.0113 6.79405 15.0219 6.79276 15.0327C6.78706 15.08 6.77979 15.1313 6.76585 15.1881C6.70727 15.4206 6.67805 15.6619 6.64982 15.895C6.57849 16.4841 6.51347 17.0211 5.99718 17.2315C5.17806 17.5766 4.56552 16.676 4.3085 16.2698C3.49178 14.9067 3.26598 12.6161 3.84249 10.7636C3.88806 10.6208 3.9194 10.4684 3.95068 10.3163C4.00842 10.0356 4.06595 9.75585 4.21241 9.53997C4.17852 9.34268 4.06765 9.24038 3.9592 9.14031C3.90622 9.09143 3.85383 9.04308 3.81126 8.98446C3.58546 8.67611 3.39329 8.31637 3.21794 7.97376C2.95783 7.45323 2.75376 6.85511 2.55683 6.27791C2.49915 6.10887 2.44209 5.94161 2.38441 5.77863C2.329 5.63331 2.29327 5.48917 2.2579 5.3465C2.22119 5.19846 2.18488 5.05199 2.12738 4.90742C1.9685 4.55942 1.70289 4.20639 1.45952 3.88293C1.40853 3.81516 1.35852 3.74868 1.31067 3.68382C1.24887 3.59447 1.16776 3.49109 1.07741 3.37595C0.62341 2.79736 -0.063639 1.92177 0.296978 1.03596C0.969568 -0.647717 3.33324 0.624826 4.24604 1.21215C4.33607 1.27167 4.43068 1.35687 4.52866 1.4451C4.67641 1.57815 4.83181 1.71809 4.99069 1.78725C5.21106 1.79671 5.43216 1.80992 5.65359 1.82314C5.83283 1.83384 6.01229 1.84456 6.19175 1.85332C6.2661 1.87123 6.34006 1.8888 6.41355 1.90627C7.08309 2.06537 7.71331 2.21513 8.24795 2.52385C11.008 4.17326 12.8023 5.85939 14.4598 8.64185C14.6852 9.01678 14.8382 9.41264 14.9943 9.81672C15.0828 10.0456 15.1723 10.2772 15.2765 10.5091C15.6805 11.4737 16.1188 12.423 16.5905 13.3552C16.6417 13.4621 16.6908 13.5721 16.74 13.6826C16.8867 14.012 17.0352 14.3455 17.251 14.613C17.3248 14.7224 17.4926 14.7806 17.6532 14.8363C17.7333 14.8641 17.8116 14.8912 17.8756 14.9238C18.0861 15.0344 18.3136 15.1343 18.5429 15.2349C18.892 15.3882 19.2454 15.5433 19.5499 15.7412C20.4837 16.3415 21.3704 17.0149 22.2018 17.7552C22.3618 17.9025 22.4982 18.0857 22.6349 18.2693C22.7527 18.4275 22.8707 18.586 23.0041 18.7219V18.8687C22.7471 18.9519 22.49 19.0327 22.2354 19.0987C21.9569 19.17 21.6942 19.1983 21.4339 19.2264C21.1668 19.2552 20.9022 19.2837 20.626 19.3581C20.5953 19.3671 20.5638 19.3763 20.5319 19.3857C20.2838 19.4584 20.0016 19.5411 19.7383 19.5877C19.7354 19.5883 19.7325 19.5888 19.7296 19.5893C19.6855 19.597 19.642 19.6036 19.5992 19.609C19.5728 19.6123 19.5467 19.6152 19.521 19.6175L19.5523 19.6518C19.5704 19.7032 19.5953 19.754 19.6259 19.8039C19.8615 20.1882 20.4381 20.5272 20.9172 20.8089C21.1015 20.9173 21.2714 21.0172 21.4019 21.1079C22.0369 21.5697 22.5997 22.1266 23.0713 22.7597C23.1503 22.8402 23.2299 22.917 23.3098 22.9941C23.3902 23.0718 23.471 23.1498 23.5518 23.232C23.5998 23.3049 23.6331 23.3873 23.665 23.4694C23.6673 23.4754 23.6697 23.4815 23.672 23.4876C23.7094 23.5841 23.7462 23.6789 23.804 23.7557V23.8047C23.7894 23.7996 23.7752 23.7939 23.7615 23.7877C23.7404 23.7782 23.7204 23.7675 23.7012 23.7557C23.6228 23.7078 23.5582 23.6429 23.4958 23.5772C23.4888 23.5699 23.4819 23.5625 23.4749 23.5552C23.4158 23.4927 23.3575 23.4309 23.2899 23.3838C23.1329 23.2749 22.9753 23.1568 22.8181 23.0391C22.622 22.8921 22.4264 22.7455 22.233 22.6178C21.9206 22.4169 21.5832 22.2579 21.2448 22.0985C20.9196 21.9453 20.5933 21.7916 20.2873 21.5998C19.9342 21.3697 19.5979 21.1103 19.2616 20.8411C18.9541 20.6111 18.6226 20.173 18.4305 19.8451C18.3827 19.7686 18.3518 19.6863 18.3219 19.607C18.2811 19.4989 18.2425 19.3963 18.1662 19.3214ZM18.262 19.9468C18.2038 19.8527 18.1655 19.7506 18.1363 19.6726C18.1313 19.6592 18.1265 19.6465 18.122 19.6347C18.0867 19.543 18.0612 19.494 18.0284 19.4618L17.9604 19.395L17.9707 19.3003C17.9838 19.1784 18.0337 19.079 18.1093 19.0022C18.181 18.9294 18.2681 18.8847 18.3461 18.8541C18.4214 18.8246 18.5017 18.8033 18.5685 18.7856L18.5746 18.784C18.6468 18.7649 18.7024 18.7498 18.7483 18.7313C19.5291 18.3925 20.4375 18.2512 21.5539 18.2507C21.4951 18.2007 21.4267 18.1492 21.3524 18.0974C21.2378 18.0175 21.1157 17.9411 21.003 17.8716C20.9888 17.8628 20.9746 17.8541 20.9605 17.8454C20.8665 17.7876 20.7775 17.7328 20.7145 17.6885L20.7121 17.6868L20.6961 17.6751C20.1812 17.3011 19.6544 16.9185 19.1147 16.5838C18.9896 16.5063 18.8108 16.4339 18.6091 16.3591C18.5681 16.3438 18.526 16.3285 18.4835 16.3129C18.3278 16.2561 18.167 16.1974 18.0349 16.137C17.9373 16.0969 17.806 16.0552 17.6515 16.0082C17.6235 15.9997 17.5949 15.991 17.5658 15.9822C17.4356 15.9428 17.2953 15.9003 17.1593 15.8545C16.9931 15.7984 16.8255 15.7346 16.6814 15.6602C16.5425 15.5884 16.4041 15.4961 16.3163 15.3728C15.8565 14.7636 15.5371 14.0281 15.2299 13.3206C15.2037 13.2603 15.1776 13.2001 15.1515 13.1403C15.0043 12.8033 14.843 12.4599 14.679 12.1106C14.6545 12.0583 14.6299 12.006 14.6053 11.9535C14.4171 11.552 14.2279 11.1437 14.0582 10.7363C13.9793 10.56 13.9181 10.3923 13.8603 10.2342C13.8517 10.2105 13.8432 10.1871 13.8346 10.1639C13.7681 9.98278 13.7024 9.81158 13.6119 9.63423C12.4713 7.38317 10.7669 5.47927 8.6722 4.11591C7.99296 3.68197 7.24047 3.28485 6.40915 3.0126C6.19612 2.94897 5.95551 2.93336 5.68497 2.92105C5.66479 2.92014 5.64443 2.91924 5.62391 2.91833C5.38425 2.90774 5.12311 2.89621 4.87338 2.84295H4.53128L4.50524 2.83565C4.31641 2.78275 4.15581 2.65937 4.0279 2.54879C3.97529 2.50331 3.92934 2.46133 3.88707 2.42272C3.81506 2.35693 3.75376 2.30094 3.68855 2.25413C3.20927 1.92412 2.72547 1.7006 2.13644 1.45765L2.12792 1.45413C2.03099 1.40873 1.84368 1.33217 1.66004 1.28854C1.56793 1.26666 1.48529 1.25511 1.41968 1.25636C1.35024 1.25768 1.32669 1.27271 1.32373 1.27517L1.29239 1.3013L1.25324 1.31281C1.20311 1.32754 1.18866 1.33871 1.18438 1.34267C1.18434 1.34271 1.18443 1.34263 1.18438 1.34267C1.18259 1.3443 1.17268 1.35331 1.16263 1.39282L1.15461 1.42431L1.1369 1.45155C1.11332 1.48781 1.102 1.55027 1.12042 1.65041C1.13816 1.74686 1.17785 1.84746 1.21593 1.93342C1.3284 2.17464 1.46317 2.3692 1.61122 2.5613C1.65623 2.6197 1.70377 2.67942 1.75262 2.74078C1.86054 2.87634 1.97481 3.01987 2.08211 3.17475C2.12299 3.23283 2.1659 3.29294 2.20999 3.35469C2.45279 3.69478 2.73124 4.08481 2.90215 4.46127C3.11707 4.93193 3.27287 5.42536 3.42099 5.90676C3.43124 5.94009 3.44146 5.97336 3.45166 6.00656C3.58982 6.45644 3.72411 6.89372 3.89863 7.30947C4.05124 7.66408 4.23791 8.00239 4.45587 8.31945C4.51115 8.39881 4.58023 8.46634 4.66425 8.54849C4.69381 8.57738 4.72521 8.60809 4.75852 8.64175C4.8726 8.75705 5.00094 8.90135 5.06832 9.09375C5.14059 9.23397 5.13623 9.41174 5.11678 9.56208C5.09486 9.73145 5.04549 9.92058 4.98908 10.1019C4.93228 10.2845 4.86607 10.4663 4.80783 10.6219C4.79203 10.6641 4.77701 10.7038 4.76298 10.741C4.72436 10.8433 4.69321 10.9258 4.67363 10.9851C4.27153 12.2821 4.35048 14.1003 4.81189 15.2175C4.83165 15.2643 4.85069 15.3105 4.86945 15.3561C4.94698 15.5443 5.01956 15.7206 5.11667 15.8739C5.19876 16.0035 5.2907 16.1034 5.40516 16.1675C5.41966 16.0437 5.43334 15.9182 5.44698 15.7931C5.47479 15.5381 5.50247 15.2843 5.53674 15.0474C5.5979 14.6245 5.68475 14.2128 5.84672 13.8376C5.94502 13.5919 6.09066 13.3871 6.23407 13.2056C6.28194 13.1451 6.32829 13.0885 6.37293 13.034C6.4682 12.9177 6.55573 12.8109 6.63381 12.6948L6.7387 12.5388L6.89931 12.6365C7.05155 12.729 7.10757 12.8995 7.13877 13.0064C7.15141 13.0497 7.16146 13.0879 7.17053 13.1223C7.1899 13.1959 7.20476 13.2523 7.23071 13.3052L7.236 13.316C7.26588 13.3876 7.2955 13.46 7.32565 13.5326C7.51055 13.9785 7.7024 14.4412 7.92567 14.8755L7.92692 14.8779C8.43953 15.9098 9.03397 16.8973 9.70433 17.8306C9.95212 18.1684 10.225 18.4863 10.5205 18.7815C10.5576 18.814 10.5918 18.8395 10.6312 18.8691C10.6526 18.8851 10.6756 18.9022 10.7014 18.9223C10.7486 18.959 10.7992 19.0012 10.848 19.0537H10.9885V19.5838L10.7224 19.4835C10.4401 19.3771 10.2187 19.1781 10.0309 18.988C9.97575 18.9322 9.92417 18.878 9.87462 18.826C9.74587 18.6908 9.63081 18.57 9.50251 18.472C8.76961 17.9088 7.88408 17.0595 7.37186 16.2286L7.36512 16.2177L7.35986 16.206C7.22525 15.9062 7.08294 15.617 6.93645 15.322C6.90011 15.4878 6.87684 15.6599 6.8552 15.8359C6.85186 15.8631 6.84856 15.8904 6.84524 15.9178C6.82381 16.095 6.80177 16.2772 6.767 16.4467C6.6861 16.8409 6.52364 17.2289 6.07249 17.4133C5.57217 17.6235 5.13805 17.4441 4.81829 17.1853C4.50331 16.9304 4.27134 16.579 4.14224 16.375L4.13969 16.3709C3.28982 14.9525 3.06419 12.6025 3.65464 10.7051L3.65507 10.7037C3.69736 10.5713 3.72531 10.4353 3.7555 10.2883C3.76919 10.2217 3.78333 10.1528 3.79948 10.0811C3.84215 9.89141 3.8981 9.68797 4.00137 9.50704C3.98007 9.44772 3.94577 9.40269 3.90063 9.35635C3.87754 9.33264 3.85581 9.31261 3.83042 9.2892C3.81705 9.27688 3.80267 9.26362 3.78654 9.2484C3.74419 9.20844 3.69558 9.1599 3.65234 9.10043C3.41648 8.77828 3.21825 8.40617 3.04281 8.0634L3.04195 8.06171C2.77528 7.52806 2.56527 6.91233 2.3677 6.33308C2.31103 6.16693 2.25539 6.00379 2.19972 5.84645C2.1405 5.69059 2.10247 5.53718 2.06789 5.39767L2.06495 5.38579C2.02898 5.24076 1.99615 5.11093 1.94637 4.98465C1.79706 4.65956 1.54899 4.32954 1.307 4.00761C1.25482 3.9382 1.20292 3.86916 1.15236 3.80062L1.14878 3.79578C1.09029 3.7112 1.01542 3.61567 0.92787 3.50412C0.881394 3.44491 0.831365 3.38117 0.778357 3.31213C0.630191 3.11916 0.468013 2.896 0.330766 2.65304C0.0583839 2.17086 -0.134878 1.57569 0.114522 0.962376C0.303239 0.490399 0.619834 0.210896 1.00814 0.0836437C1.38639 -0.0403112 1.81359 -0.0138353 2.22544 0.0806811C3.04866 0.269608 3.89109 0.749826 4.35249 1.04671L4.35455 1.04803C4.45819 1.11655 4.56752 1.21515 4.66625 1.30416C4.68965 1.32527 4.71247 1.34583 4.73446 1.36534C4.84761 1.46564 4.947 1.54564 5.03874 1.59244C5.24539 1.60173 5.45807 1.6144 5.66932 1.62699C5.84925 1.63771 6.02813 1.64837 6.20134 1.65682L6.21982 1.65772L6.23781 1.66206C6.31227 1.67999 6.38679 1.69767 6.46126 1.71534C7.12558 1.87295 7.78513 2.02942 8.34633 2.35348L8.34888 2.35496C11.1336 4.01911 12.9527 5.72747 14.6286 8.54078C14.8135 8.84846 14.9503 9.1669 15.0754 9.48285C15.111 9.57274 15.1454 9.66183 15.1797 9.75045C15.2674 9.97759 15.354 10.2017 15.4559 10.4284L15.458 10.433C15.8602 11.3933 16.2965 12.3384 16.766 13.2663L16.7679 13.2701C16.8203 13.3794 16.8702 13.4915 16.919 13.601C16.9681 13.7113 17.0163 13.8195 17.0667 13.9249C17.1678 14.1363 17.2742 14.3284 17.4042 14.4895L17.4095 14.4961L17.4142 14.5031C17.4308 14.5277 17.4817 14.5634 17.6026 14.6093C17.6396 14.6234 17.6755 14.6358 17.714 14.6491C17.7345 14.6562 17.7558 14.6636 17.7783 14.6716C17.8383 14.6929 17.9047 14.7179 17.9649 14.7485L17.9671 14.7496C18.1709 14.8567 18.3901 14.953 18.6186 15.0533C18.6793 15.0799 18.7406 15.1069 18.8025 15.1344C19.0924 15.2632 19.3905 15.403 19.6567 15.576C20.599 16.1817 21.4937 16.8612 22.3326 17.6083L22.335 17.6104C22.4993 17.7616 22.6378 17.9441 22.7642 18.1136C22.7732 18.1256 22.7821 18.1375 22.7909 18.1494C22.9107 18.3102 23.0209 18.4582 23.1445 18.584L23.2008 18.6414V19.0118L23.0647 19.0559C22.8071 19.1392 22.5454 19.2215 22.2848 19.2892C21.9925 19.3639 21.7171 19.3937 21.4596 19.4215L21.4446 19.4231C21.1802 19.4516 20.9341 19.4791 20.679 19.5476C20.6488 19.5564 20.6177 19.5655 20.5857 19.5749C20.3612 19.6408 20.0964 19.7186 19.8398 19.7688C19.8811 19.824 19.9325 19.881 19.994 19.9397C20.1249 20.0647 20.2903 20.1871 20.4717 20.3063C20.6504 20.4239 20.8389 20.5347 21.0187 20.6404L21.0255 20.6444C21.2044 20.7496 21.3782 20.8518 21.5142 20.9463L21.5176 20.9487C22.1651 21.4196 22.7393 21.9868 23.221 22.6313C23.2951 22.7065 23.37 22.7788 23.4472 22.8534C23.5272 22.9305 23.6095 23.0101 23.6922 23.0942L23.7055 23.1078L23.716 23.1238C23.7796 23.2202 23.8213 23.3279 23.8538 23.4122C23.8561 23.418 23.8582 23.4236 23.8604 23.4291C23.8975 23.5248 23.9248 23.5892 23.9612 23.6374L24.0007 23.69V24.0811L23.7395 23.9906C23.5818 23.9359 23.4707 23.8335 23.3874 23.7483C23.3628 23.7232 23.3413 23.7005 23.3217 23.6798C23.2671 23.6221 23.2272 23.5799 23.1776 23.5453M18.262 19.9468C18.4599 20.2839 18.8051 20.7443 19.1411 20.9967C19.4779 21.2662 19.8194 21.5298 20.1799 21.7646L20.1828 21.7664C20.499 21.9647 20.8345 22.1227 21.1568 22.2745L21.1808 22.2858C21.5138 22.4427 21.8321 22.594 22.1256 22.7826M5.36587 16.2875C5.36575 16.2877 5.36578 16.2877 5.36587 16.2875Z" fill="#4479A1"/>
</g>
<defs>
<clipPath id="clip0">
<rect width="24" height="24" fill="white"/>
</clipPath>
</defs>
</svg>
