<svg width="24" height="24" viewBox="0 0 24 24" fill="none" xmlns="http://www.w3.org/2000/svg">
<g clip-path="url(#clip0)">
<path d="M5.55988 4.23424C5.28364 4.23424 5.09628 4.2685 4.90171 4.315V4.34681H4.93534C5.06505 4.60132 5.28604 4.78731 5.44938 5.0149C5.5791 5.27675 5.6896 5.5386 5.81931 5.798L5.85294 5.7613C6.07874 5.59978 6.18923 5.34038 6.18923 4.94638C6.09315 4.83136 6.07874 4.71634 5.99707 4.60377C5.90098 4.43981 5.6944 4.35905 5.56469 4.22935L5.55988 4.23424ZM21.9398 18.4525C20.6547 18.4182 19.6578 18.5504 18.8243 18.9125C18.5841 19.0104 18.1998 19.0104 18.1661 19.3212C18.2983 19.4509 18.3175 19.6638 18.4304 19.8449C18.6225 20.1728 18.954 20.6109 19.2615 20.8409C19.5978 21.1101 19.9341 21.3695 20.2872 21.5996C20.9117 21.9911 21.6204 22.2236 22.2329 22.6176C22.5812 22.8476 22.9367 23.1389 23.2898 23.3836C23.4652 23.5059 23.5781 23.7262 23.8039 23.8045V23.7555C23.6934 23.6087 23.6598 23.3958 23.5517 23.2318C23.3907 23.0679 23.2298 22.9211 23.0712 22.7595C22.5996 22.1264 22.0368 21.5695 21.4018 21.1077C20.8877 20.7504 19.7635 20.2512 19.5522 19.6516L19.5209 19.6173C19.8716 19.5855 20.2896 19.4558 20.6259 19.3579C21.1712 19.2111 21.6708 19.2429 22.2353 19.0985C22.4899 19.0325 22.747 18.9517 23.004 18.8685V18.7217C22.7157 18.428 22.4995 18.0291 22.2017 17.755C21.3703 17.0147 20.4836 16.3413 19.5497 15.741C19.0453 15.413 18.4063 15.2026 17.8755 14.9236C17.6833 14.8257 17.3614 14.7768 17.2509 14.6128C16.9627 14.2555 16.7945 13.7808 16.5904 13.355C16.1187 12.4228 15.6804 11.4735 15.2764 10.5089C14.9882 9.86769 14.8128 9.22898 14.4597 8.64165C12.8022 5.85918 11.0079 4.17306 8.24784 2.52365C7.65452 2.18104 6.94349 2.03421 6.19164 1.85312C5.79048 1.83354 5.38933 1.80418 4.99058 1.78705C4.72635 1.67203 4.47173 1.36123 4.24593 1.21195C3.33313 0.624626 0.969458 -0.647918 0.296868 1.03576C-0.135511 2.09784 0.93823 3.14524 1.31056 3.68362C1.5868 4.05805 1.9351 4.48631 2.12727 4.90722C2.24017 5.1911 2.2714 5.48232 2.3843 5.77843C2.63892 6.4979 2.88154 7.30058 3.21783 7.97356C3.39318 8.31617 3.58535 8.67591 3.81115 8.98426C3.94086 9.1629 4.16186 9.24611 4.2123 9.53977C3.9865 9.87259 3.97209 10.3571 3.84238 10.7634C3.26587 12.6159 3.49167 14.9065 4.30839 16.2696C4.56541 16.6758 5.17795 17.5764 5.99707 17.2313C6.7177 16.9377 6.55916 16.0077 6.76574 15.1879C6.81378 14.9921 6.78255 14.8624 6.88104 14.7303V14.767C7.10684 15.2271 7.33264 15.6651 7.53922 16.1252C8.03405 16.9279 8.89881 17.7599 9.62185 18.3154C10.0062 18.6091 10.3112 19.1181 10.7917 19.2992V19.2503H10.7556C10.6523 19.1083 10.5154 19.0398 10.3857 18.9248C10.0811 18.621 9.80006 18.2938 9.54497 17.9459C8.86818 17.0038 8.26806 16.0069 7.7506 14.9652C7.48637 14.4513 7.26538 13.8982 7.05399 13.3917C6.95791 13.1959 6.95791 12.9022 6.79697 12.8043C6.55676 13.1616 6.20365 13.4724 6.02829 13.9129C5.72323 14.6177 5.692 15.484 5.5767 16.3846C5.51184 16.4017 5.54307 16.3846 5.51184 16.4188C4.99779 16.2916 4.82244 15.7483 4.63027 15.2931C4.14985 14.1307 4.07058 12.2635 4.48614 10.9249C4.59904 10.5823 5.07946 9.50062 4.88729 9.17269C4.7864 8.8619 4.46933 8.68325 4.29397 8.43119C4.0684 8.10312 3.87529 7.7531 3.71747 7.38624C3.33313 6.47098 3.14096 5.45784 2.723 4.54259C2.53083 4.11923 2.19453 3.67628 1.92069 3.28718C1.61563 2.84668 1.27933 2.53589 1.03672 2.01463C0.957449 1.83599 0.844549 1.53988 0.97186 1.3441C1.00549 1.21195 1.07275 1.16056 1.19766 1.12385C1.40904 0.947657 2.00236 1.17769 2.21135 1.27558C2.80467 1.5203 3.30431 1.75034 3.80154 2.09295C4.02734 2.25446 4.26995 2.56526 4.5582 2.64601H4.8945C5.40855 2.76103 5.98746 2.68027 6.46788 2.82466C7.32063 3.10364 8.0893 3.50987 8.77871 3.95037C10.903 5.33283 12.6308 7.26278 13.7871 9.54467C13.9793 9.92153 14.0633 10.2666 14.2387 10.6581C14.575 11.4657 14.9906 12.2806 15.3316 13.0613C15.6679 13.8322 15.9922 14.6177 16.4751 15.2564C16.7153 15.599 17.6809 15.7777 18.1133 15.9563C18.4328 16.1032 18.93 16.2378 19.2183 16.4164C19.7707 16.759 20.3088 17.1506 20.8277 17.5274C21.0919 17.7134 21.8918 18.1221 21.9398 18.4525Z" fill="black"/>
<path fill-rule="evenodd" clip-rule="evenodd" d="M5.55999 4.23444C5.56003 4.23444 5.55996 4.23444 5.55999 4.23444L5.5648 4.22955C5.56738 4.23214 5.57 4.2347 5.57264 4.23725C5.62177 4.28456 5.68092 4.32553 5.74059 4.36685C5.83888 4.43493 5.93858 4.50398 5.99718 4.60397C6.03439 4.65526 6.05764 4.70706 6.08101 4.75913C6.10894 4.82135 6.13704 4.88397 6.18934 4.94658C6.18934 5.26547 6.11696 5.49619 5.96964 5.6582C5.93495 5.69636 5.89609 5.73071 5.85305 5.7615L5.81942 5.7982C5.79906 5.75749 5.77918 5.71672 5.75962 5.6759C5.74896 5.65366 5.7384 5.6314 5.72791 5.60913C5.69458 5.53835 5.66198 5.46743 5.62933 5.39642C5.57098 5.2695 5.51251 5.1423 5.44949 5.0151C5.38686 4.92784 5.31576 4.84669 5.24457 4.76545C5.16649 4.67634 5.08831 4.58711 5.02111 4.48959C4.9898 4.44414 4.96087 4.39689 4.93545 4.34701H4.90182V4.3152C4.91304 4.31252 4.92425 4.30988 4.93545 4.30728C4.97975 4.297 5.02397 4.28743 5.06924 4.27882C5.08508 4.27581 5.10106 4.27292 5.11721 4.27016C5.24538 4.24822 5.38487 4.23445 5.55999 4.23444ZM4.82128 4.54375H4.70508V4.15994L4.85609 4.12386C5.04085 4.07971 5.22453 4.04505 5.4764 4.03874L5.56346 3.95L5.7039 4.09043C5.74092 4.12744 5.78398 4.15734 5.84272 4.19811C5.8625 4.21184 5.88405 4.2268 5.90774 4.24368C5.98824 4.30102 6.09127 4.38006 6.1619 4.49611C6.20858 4.56233 6.23841 4.62909 6.26023 4.67794C6.26263 4.68332 6.26494 4.68849 6.26717 4.69341C6.29178 4.74794 6.31045 4.78468 6.34033 4.82045L6.38608 4.87522V4.94658C6.38608 5.36976 6.26766 5.69699 5.985 5.9087L5.77134 6.14192L5.64346 5.88619C5.57695 5.75319 5.51562 5.62006 5.45571 5.48975L5.45103 5.47957C5.39466 5.35695 5.33944 5.23685 5.28047 5.11713C5.22635 5.04329 5.1668 4.97531 5.10094 4.90011C5.0783 4.87426 5.05491 4.84756 5.03075 4.81948C4.96022 4.73754 4.88603 4.64688 4.82128 4.54375ZM18.1662 19.3214C18.1914 19.089 18.4127 19.0304 18.6232 18.9747C18.6942 18.9559 18.7639 18.9374 18.8244 18.9127C19.6127 18.5702 20.547 18.4334 21.7331 18.4486C21.8012 18.4494 21.8702 18.4508 21.94 18.4527C21.9306 18.3885 21.8929 18.3214 21.8363 18.2535C21.6649 18.048 21.32 17.8357 21.0633 17.6777C20.9683 17.6192 20.8853 17.5681 20.8278 17.5276L20.809 17.514C20.296 17.1413 19.7642 16.7551 19.2184 16.4166C19.0427 16.3077 18.7894 16.2152 18.5461 16.1263C18.3901 16.0694 18.2382 16.0139 18.1134 15.9565C17.9853 15.9036 17.8105 15.8507 17.6216 15.7935C17.1727 15.6577 16.6442 15.4978 16.4752 15.2566C16.0292 14.6667 15.7185 13.9515 15.4087 13.2384C15.3831 13.1794 15.3575 13.1204 15.3318 13.0615C15.1834 12.7219 15.0209 12.3758 14.857 12.0267C14.6441 11.5732 14.4288 11.1146 14.2388 10.6583C14.1625 10.488 14.1035 10.3264 14.0453 10.1672C13.9698 9.96053 13.8958 9.75777 13.7872 9.54487C12.6309 7.26298 10.9031 5.33303 8.77882 3.95057C8.08941 3.51007 7.32074 3.10384 6.46799 2.82486C6.21047 2.74746 5.92464 2.73476 5.63568 2.72191C5.38557 2.7108 5.13311 2.69958 4.89461 2.64621H4.55831C4.36527 2.59213 4.19269 2.43487 4.03193 2.28837C3.95264 2.21612 3.87623 2.14649 3.80165 2.09315C3.30442 1.75054 2.80478 1.5205 2.21146 1.27578C2.00247 1.17789 1.40915 0.947857 1.19777 1.12406C1.07286 1.16076 1.0056 1.21215 0.97197 1.3443C0.844659 1.54008 0.957559 1.83619 1.03683 2.01483C1.19699 2.35894 1.39797 2.61132 1.60385 2.86985C1.70984 3.00295 1.81712 3.13767 1.9208 3.28738C1.9635 3.34805 2.00772 3.41003 2.05268 3.47305C2.29602 3.81414 2.5609 4.18544 2.72311 4.54279C2.94679 5.03261 3.1058 5.55046 3.26421 6.06634C3.4018 6.51441 3.53893 6.961 3.71758 7.38644C3.8754 7.7533 4.06851 8.10332 4.29408 8.43139C4.361 8.52758 4.44855 8.61307 4.53685 8.6993C4.67995 8.83903 4.82501 8.98069 4.8874 9.17289C5.04388 9.43991 4.75442 10.2067 4.58054 10.6672C4.54087 10.7723 4.50722 10.8614 4.48625 10.9251C4.07069 12.2637 4.14996 14.1309 4.63038 15.2933C4.64849 15.3362 4.66645 15.3799 4.68456 15.4239C4.8586 15.8472 5.04634 16.3038 5.51195 16.419C5.52609 16.4035 5.52743 16.3986 5.53067 16.3962C5.5346 16.3933 5.54131 16.3942 5.57681 16.3848C5.60173 16.1901 5.62272 15.9971 5.6434 15.8069C5.7184 15.1173 5.78927 14.4656 6.0284 13.9131C6.14289 13.6255 6.33315 13.3932 6.51829 13.1672C6.61672 13.047 6.7137 12.9286 6.79708 12.8045C6.80264 12.8079 6.808 12.8115 6.81319 12.8154C6.86196 12.8514 6.89468 12.9071 6.92017 12.9723C6.94184 13.0277 6.95827 13.09 6.97489 13.153C6.99683 13.2362 7.01909 13.3205 7.0541 13.3919C7.08367 13.4627 7.11343 13.5345 7.14347 13.6069C7.32816 14.0524 7.52344 14.5234 7.75071 14.9654C8.26817 16.0071 8.86829 17.004 9.54508 17.9461C9.58088 17.9949 9.61719 18.0433 9.654 18.0913C9.67723 18.1216 9.70066 18.1517 9.72429 18.1817C9.72439 18.1818 9.7242 18.1816 9.72429 18.1817C9.92999 18.4424 10.1511 18.6909 10.3858 18.925C10.4306 18.9646 10.4761 18.9988 10.5209 19.0323C10.606 19.096 10.6881 19.1575 10.7557 19.2505H10.7918V19.2994C10.7797 19.2948 10.7677 19.2901 10.7557 19.2851C10.7458 19.2809 10.7358 19.2766 10.726 19.2721C10.7107 19.2652 10.6957 19.258 10.6808 19.2505C10.5508 19.1847 10.4334 19.0956 10.3229 18.996C10.3215 18.9947 10.3201 18.9935 10.3187 18.9922C10.2175 18.9005 10.1218 18.8001 10.0271 18.7006C9.89433 18.5612 9.76352 18.4238 9.62196 18.3156C9.58595 18.288 9.54959 18.2596 9.51295 18.2306C8.81371 17.6773 8.00952 16.8881 7.53933 16.1254C7.38776 15.7878 7.22585 15.4621 7.06119 15.1309C7.03918 15.0866 7.01711 15.0422 6.99502 14.9977C6.95713 14.9214 6.91914 14.8446 6.88115 14.7672V14.7305C6.87203 14.7427 6.86402 14.7549 6.85696 14.7672C6.85385 14.7726 6.85093 14.778 6.84818 14.7834C6.81368 14.8511 6.8057 14.9205 6.79647 15.0009C6.79527 15.0113 6.79405 15.0219 6.79275 15.0327C6.78706 15.08 6.77979 15.1313 6.76585 15.1881C6.70727 15.4206 6.67805 15.6619 6.64982 15.895C6.57849 16.4841 6.51347 17.0211 5.99718 17.2315C5.17806 17.5766 4.56552 16.676 4.3085 16.2698C3.49178 14.9067 3.26598 12.6161 3.84249 10.7636C3.88806 10.6208 3.9194 10.4684 3.95068 10.3163C4.00842 10.0356 4.06595 9.75585 4.21241 9.53997C4.17852 9.34268 4.06765 9.24038 3.9592 9.14031C3.90622 9.09143 3.85383 9.04308 3.81126 8.98446C3.58546 8.67611 3.39329 8.31637 3.21794 7.97376C2.95783 7.45323 2.75376 6.85511 2.55683 6.27791C2.49915 6.10887 2.44209 5.94161 2.38441 5.77863C2.329 5.63331 2.29327 5.48917 2.2579 5.3465C2.22119 5.19846 2.18488 5.05199 2.12738 4.90742C1.9685 4.55942 1.70289 4.20639 1.45952 3.88293C1.40853 3.81516 1.35852 3.74868 1.31067 3.68382C1.24887 3.59447 1.16776 3.49109 1.07741 3.37595C0.62341 2.79736 -0.063639 1.92177 0.296978 1.03596C0.969568 -0.647717 3.33324 0.624826 4.24604 1.21215C4.33607 1.27167 4.43068 1.35687 4.52866 1.4451C4.67641 1.57815 4.83181 1.71809 4.99069 1.78725C5.21106 1.79671 5.43216 1.80992 5.65359 1.82314C5.83283 1.83384 6.01229 1.84456 6.19175 1.85332C6.2661 1.87123 6.34006 1.8888 6.41355 1.90627C7.08309 2.06537 7.71331 2.21513 8.24795 2.52385C11.008 4.17326 12.8023 5.85939 14.4598 8.64185C14.6852 9.01678 14.8382 9.41264 14.9943 9.81672C15.0828 10.0456 15.1723 10.2772 15.2765 10.5091C15.6805 11.4737 16.1188 12.423 16.5905 13.3552C16.6417 13.4621 16.6908 13.5721 16.74 13.6826C16.8867 14.012 17.0352 14.3455 17.251 14.613C17.3248 14.7224 17.4926 14.7806 17.6532 14.8363C17.7333 14.8641 17.8116 14.8912 17.8756 14.9238C18.0861 15.0344 18.3136 15.1343 18.5429 15.2349C18.892 15.3882 19.2454 15.5433 19.5499 15.7412C20.4837 16.3415 21.3704 17.0149 22.2018 17.7552C22.3618 17.9025 22.4982 18.0857 22.6349 18.2693C22.7527 18.4275 22.8707 18.586 23.0041 18.7219V18.8687C22.7471 18.9519 22.49 19.0327 22.2354 19.0987C21.9569 19.17 21.6941 19.1983 21.4339 19.2264C21.1668 19.2552 20.9022 19.2837 20.626 19.3581C20.5953 19.3671 20.5638 19.3763 20.5318 19.3857C20.2838 19.4584 20.0016 19.5411 19.7383 19.5877C19.7354 19.5883 19.7325 19.5888 19.7296 19.5893C19.6855 19.597 19.642 19.6036 19.5992 19.609C19.5728 19.6123 19.5467 19.6152 19.521 19.6175L19.5523 19.6518C19.5704 19.7032 19.5953 19.754 19.6259 19.8039C19.8615 20.1882 20.4381 20.5272 20.9172 20.8089C21.1015 20.9173 21.2714 21.0172 21.4019 21.1079C22.0369 21.5697 22.5997 22.1266 23.0713 22.7597C23.1503 22.8402 23.2299 22.917 23.3098 22.9941C23.3902 23.0718 23.471 23.1498 23.5518 23.232C23.5998 23.3049 23.6331 23.3873 23.665 23.4694C23.6673 23.4754 23.6697 23.4815 23.672 23.4876C23.7094 23.5841 23.7462 23.6789 23.804 23.7557V23.8047C23.7894 23.7996 23.7752 23.7939 23.7615 23.7877C23.7404 23.7782 23.7204 23.7675 23.7012 23.7557C23.6228 23.7078 23.5582 23.6429 23.4958 23.5772C23.4888 23.5699 23.4819 23.5625 23.4749 23.5552C23.4158 23.4927 23.3575 23.4309 23.2899 23.3838C23.1329 23.2749 22.9753 23.1568 22.8181 23.0391C22.622 22.8921 22.4264 22.7455 22.233 22.6178C21.9206 22.4169 21.5832 22.2579 21.2448 22.0985C20.9196 21.9453 20.5933 21.7916 20.2873 21.5998C19.9342 21.3697 19.5979 21.1103 19.2616 20.8411C18.9541 20.6111 18.6226 20.173 18.4305 19.8451C18.3827 19.7686 18.3518 19.6863 18.3219 19.607C18.2811 19.4989 18.2425 19.3963 18.1662 19.3214ZM18.262 19.9468C18.2038 19.8527 18.1655 19.7506 18.1363 19.6726C18.1313 19.6592 18.1265 19.6465 18.122 19.6347C18.0867 19.543 18.0612 19.494 18.0284 19.4618L17.9604 19.395L17.9707 19.3003C17.9838 19.1784 18.0337 19.079 18.1093 19.0022C18.181 18.9294 18.2681 18.8847 18.3461 18.8541C18.4214 18.8246 18.5017 18.8033 18.5685 18.7856L18.5746 18.784C18.6467 18.7649 18.7024 18.7498 18.7483 18.7313C19.5291 18.3925 20.4375 18.2512 21.5539 18.2507C21.4951 18.2007 21.4267 18.1492 21.3524 18.0974C21.2378 18.0175 21.1157 17.9411 21.003 17.8716C20.9888 17.8628 20.9746 17.8541 20.9605 17.8454C20.8665 17.7876 20.7775 17.7328 20.7145 17.6885L20.7121 17.6868L20.6961 17.6751C20.1812 17.3011 19.6544 16.9185 19.1147 16.5838C18.9896 16.5063 18.8108 16.4339 18.6091 16.3591C18.5681 16.3438 18.526 16.3285 18.4835 16.3129C18.3278 16.2561 18.167 16.1974 18.0349 16.137C17.9373 16.0969 17.806 16.0552 17.6515 16.0082C17.6235 15.9997 17.5949 15.991 17.5658 15.9822C17.4356 15.9428 17.2953 15.9003 17.1593 15.8545C16.9931 15.7984 16.8255 15.7346 16.6814 15.6602C16.5425 15.5884 16.4041 15.4961 16.3163 15.3728C15.8565 14.7636 15.5371 14.0281 15.2299 13.3206C15.2037 13.2603 15.1776 13.2001 15.1515 13.1403C15.0043 12.8033 14.843 12.4599 14.679 12.1106C14.6545 12.0583 14.6299 12.006 14.6053 11.9535C14.4171 11.552 14.2279 11.1437 14.0582 10.7363C13.9793 10.56 13.9181 10.3923 13.8603 10.2342C13.8517 10.2105 13.8432 10.1871 13.8346 10.1639C13.7681 9.98278 13.7024 9.81158 13.6119 9.63423C12.4713 7.38317 10.7669 5.47927 8.6722 4.11591C7.99296 3.68197 7.24047 3.28485 6.40915 3.0126C6.19612 2.94897 5.95551 2.93336 5.68497 2.92105C5.66479 2.92014 5.64443 2.91924 5.62391 2.91833C5.38425 2.90774 5.12311 2.89621 4.87338 2.84295H4.53128L4.50524 2.83565C4.31641 2.78275 4.15581 2.65937 4.0279 2.54879C3.97529 2.50331 3.92934 2.46133 3.88707 2.42272C3.81506 2.35693 3.75376 2.30094 3.68855 2.25413C3.20927 1.92412 2.72547 1.7006 2.13644 1.45765L2.12792 1.45413C2.03099 1.40873 1.84368 1.33217 1.66004 1.28854C1.56793 1.26666 1.48529 1.25511 1.41968 1.25636C1.35024 1.25768 1.32669 1.27271 1.32373 1.27517L1.29239 1.3013L1.25324 1.31281C1.20311 1.32754 1.18866 1.33871 1.18438 1.34267C1.18434 1.34271 1.18443 1.34263 1.18438 1.34267C1.18259 1.3443 1.17268 1.35331 1.16263 1.39282L1.15461 1.42431L1.1369 1.45155C1.11332 1.48781 1.102 1.55027 1.12042 1.65041C1.13816 1.74686 1.17785 1.84746 1.21593 1.93342C1.3284 2.17464 1.46317 2.3692 1.61122 2.5613C1.65623 2.6197 1.70377 2.67942 1.75262 2.74078C1.86054 2.87634 1.97481 3.01987 2.08211 3.17475C2.12299 3.23283 2.1659 3.29294 2.20999 3.35469C2.45279 3.69478 2.73124 4.08481 2.90215 4.46127C3.11707 4.93193 3.27287 5.42536 3.42099 5.90676C3.43124 5.94009 3.44146 5.97336 3.45165 6.00656C3.58982 6.45644 3.72411 6.89372 3.89863 7.30947C4.05124 7.66408 4.23791 8.00239 4.45587 8.31945C4.51115 8.39881 4.58023 8.46634 4.66425 8.54849C4.69381 8.57738 4.72521 8.60809 4.75852 8.64175C4.8726 8.75705 5.00094 8.90135 5.06832 9.09375C5.14059 9.23397 5.13623 9.41174 5.11678 9.56208C5.09486 9.73145 5.04549 9.92058 4.98908 10.1019C4.93228 10.2845 4.86607 10.4663 4.80783 10.6219C4.79203 10.6641 4.77701 10.7038 4.76298 10.741C4.72436 10.8433 4.69321 10.9258 4.67363 10.9851C4.27153 12.2821 4.35048 14.1003 4.81189 15.2175C4.83165 15.2643 4.85069 15.3105 4.86945 15.3561C4.94698 15.5443 5.01956 15.7206 5.11667 15.8739C5.19876 16.0035 5.2907 16.1034 5.40516 16.1675C5.41966 16.0437 5.43334 15.9182 5.44698 15.7931C5.47479 15.5381 5.50247 15.2843 5.53674 15.0474C5.5979 14.6245 5.68475 14.2128 5.84672 13.8376C5.94502 13.5919 6.09066 13.3871 6.23407 13.2056C6.28194 13.1451 6.32829 13.0885 6.37293 13.034C6.4682 12.9177 6.55573 12.8109 6.63381 12.6948L6.7387 12.5388L6.89931 12.6365C7.05155 12.729 7.10757 12.8995 7.13877 13.0064C7.15141 13.0497 7.16146 13.0879 7.17053 13.1223C7.1899 13.1959 7.20476 13.2523 7.23071 13.3052L7.236 13.316C7.26588 13.3876 7.2955 13.46 7.32565 13.5326C7.51055 13.9785 7.7024 14.4412 7.92567 14.8755L7.92692 14.8779C8.43953 15.9098 9.03397 16.8973 9.70433 17.8306C9.95212 18.1684 10.225 18.4863 10.5205 18.7815C10.5576 18.814 10.5918 18.8395 10.6312 18.8691C10.6526 18.8851 10.6756 18.9022 10.7014 18.9223C10.7486 18.959 10.7992 19.0012 10.848 19.0537H10.9885V19.5838L10.7224 19.4835C10.4401 19.3771 10.2187 19.1781 10.0309 18.988C9.97575 18.9322 9.92417 18.878 9.87462 18.826C9.74587 18.6908 9.63081 18.57 9.50251 18.472C8.7696 17.9088 7.88408 17.0595 7.37186 16.2286L7.36512 16.2177L7.35986 16.206C7.22525 15.9062 7.08294 15.617 6.93645 15.322C6.90011 15.4878 6.87684 15.6599 6.8552 15.8359C6.85186 15.8631 6.84856 15.8904 6.84524 15.9178C6.82381 16.095 6.80177 16.2772 6.767 16.4467C6.6861 16.8409 6.52364 17.2289 6.07249 17.4133C5.57217 17.6235 5.13805 17.4441 4.81829 17.1853C4.50331 16.9304 4.27134 16.579 4.14224 16.375L4.13969 16.3709C3.28982 14.9525 3.06419 12.6025 3.65464 10.7051L3.65507 10.7037C3.69736 10.5713 3.72531 10.4353 3.7555 10.2883C3.76919 10.2217 3.78333 10.1528 3.79948 10.0811C3.84215 9.89141 3.8981 9.68797 4.00137 9.50704C3.98007 9.44772 3.94576 9.40269 3.90063 9.35635C3.87754 9.33264 3.85581 9.31261 3.83042 9.2892C3.81705 9.27688 3.80267 9.26362 3.78654 9.2484C3.74419 9.20844 3.69558 9.1599 3.65234 9.10043C3.41648 8.77828 3.21825 8.40617 3.04281 8.0634L3.04195 8.06171C2.77528 7.52806 2.56527 6.91233 2.3677 6.33308C2.31103 6.16693 2.25539 6.00379 2.19972 5.84645C2.1405 5.69059 2.10247 5.53718 2.06789 5.39767L2.06495 5.38579C2.02898 5.24076 1.99615 5.11093 1.94637 4.98465C1.79706 4.65956 1.54899 4.32954 1.307 4.00761C1.25482 3.9382 1.20292 3.86916 1.15236 3.80062L1.14878 3.79578C1.09029 3.7112 1.01542 3.61567 0.92787 3.50412C0.881394 3.44491 0.831365 3.38117 0.778356 3.31213C0.630191 3.11916 0.468013 2.896 0.330766 2.65304C0.0583839 2.17086 -0.134878 1.57569 0.114522 0.962376C0.303239 0.490399 0.619834 0.210896 1.00814 0.0836437C1.38639 -0.0403112 1.81359 -0.0138353 2.22544 0.0806811C3.04866 0.269608 3.89109 0.749826 4.35249 1.04671L4.35455 1.04803C4.45819 1.11655 4.56752 1.21515 4.66625 1.30416C4.68965 1.32527 4.71246 1.34583 4.73446 1.36534C4.84761 1.46564 4.947 1.54564 5.03874 1.59244C5.24539 1.60173 5.45807 1.6144 5.66932 1.62699C5.84925 1.63771 6.02813 1.64837 6.20133 1.65682L6.21982 1.65772L6.23781 1.66206C6.31227 1.67999 6.38679 1.69767 6.46126 1.71534C7.12557 1.87295 7.78513 2.02942 8.34633 2.35348L8.34888 2.35496C11.1336 4.01911 12.9527 5.72747 14.6286 8.54078C14.8135 8.84846 14.9503 9.1669 15.0754 9.48285C15.111 9.57274 15.1454 9.66183 15.1797 9.75045C15.2674 9.97759 15.354 10.2017 15.4559 10.4284L15.458 10.433C15.8602 11.3933 16.2965 12.3384 16.766 13.2663L16.7679 13.2701C16.8203 13.3794 16.8702 13.4915 16.919 13.601C16.9681 13.7113 17.0163 13.8195 17.0667 13.9249C17.1678 14.1363 17.2742 14.3284 17.4042 14.4895L17.4095 14.4961L17.4142 14.5031C17.4308 14.5277 17.4817 14.5634 17.6026 14.6093C17.6396 14.6234 17.6755 14.6358 17.714 14.6491C17.7345 14.6562 17.7558 14.6636 17.7783 14.6716C17.8383 14.6929 17.9047 14.7179 17.9649 14.7485L17.9671 14.7496C18.1709 14.8567 18.3901 14.953 18.6186 15.0533C18.6793 15.0799 18.7406 15.1069 18.8025 15.1344C19.0924 15.2632 19.3905 15.403 19.6567 15.576C20.599 16.1817 21.4937 16.8612 22.3326 17.6083L22.335 17.6104C22.4993 17.7616 22.6378 17.9441 22.7642 18.1136C22.7732 18.1256 22.7821 18.1375 22.7909 18.1494C22.9107 18.3102 23.0209 18.4582 23.1445 18.584L23.2008 18.6414V19.0118L23.0647 19.0559C22.8071 19.1392 22.5454 19.2215 22.2848 19.2892C21.9925 19.3639 21.7171 19.3937 21.4596 19.4215L21.4446 19.4231C21.1802 19.4516 20.9341 19.4791 20.679 19.5476C20.6488 19.5564 20.6177 19.5655 20.5857 19.5749C20.3612 19.6408 20.0964 19.7186 19.8398 19.7688C19.8811 19.824 19.9325 19.881 19.994 19.9397C20.1249 20.0647 20.2903 20.1871 20.4717 20.3063C20.6504 20.4239 20.8389 20.5347 21.0187 20.6404L21.0255 20.6444C21.2044 20.7496 21.3782 20.8518 21.5142 20.9463L21.5176 20.9487C22.1651 21.4196 22.7393 21.9868 23.221 22.6313C23.2951 22.7065 23.37 22.7788 23.4472 22.8534C23.5272 22.9305 23.6095 23.0101 23.6922 23.0942L23.7055 23.1078L23.716 23.1238C23.7796 23.2202 23.8212 23.3279 23.8538 23.4122C23.8561 23.418 23.8582 23.4236 23.8604 23.4291C23.8975 23.5248 23.9248 23.5892 23.9612 23.6374L24.0007 23.69V24.0811L23.7395 23.9906C23.5818 23.9359 23.4707 23.8335 23.3874 23.7483C23.3628 23.7232 23.3413 23.7005 23.3217 23.6798C23.2671 23.6221 23.2272 23.5799 23.1776 23.5453M18.262 19.9468C18.4599 20.2839 18.8051 20.7443 19.1411 20.9967C19.4779 21.2662 19.8194 21.5298 20.1799 21.7646L20.1828 21.7664C20.499 21.9647 20.8345 22.1227 21.1568 22.2745L21.1808 22.2858C21.5138 22.4427 21.8321 22.594 22.1256 22.7826M5.36587 16.2875C5.36575 16.2877 5.36578 16.2877 5.36587 16.2875Z" fill="black"/>
</g>
<defs>
<clipPath id="clip0">
<rect width="24" height="24" fill="white"/>
</clipPath>
</defs>
</svg>
