<svg width="24" height="24" viewBox="0 0 24 24" fill="none" xmlns="http://www.w3.org/2000/svg">
<path d="M16.7284 0C15.7959 0.00693644 14.8689 0.142549 13.9734 0.403L13.9104 0.423C13.3457 0.323188 12.7739 0.268017 12.2004 0.258C11.0224 0.238 10.0104 0.524 9.19445 1C8.39045 0.721 6.72245 0.24 4.96445 0.336C3.74045 0.403 2.40445 0.776 1.41445 1.82C0.427449 2.865 -0.0955507 4.482 0.0144493 6.682C0.0444493 7.289 0.218449 8.279 0.504449 9.562C0.792449 10.843 1.19445 12.344 1.69845 13.713C2.20145 15.083 2.75245 16.313 3.61345 17.149C4.04345 17.569 4.63545 17.92 5.33345 17.891C5.82345 17.871 6.26645 17.656 6.64845 17.339C6.83445 17.584 7.03345 17.691 7.21445 17.79C7.44245 17.915 7.66445 18 7.89445 18.056C8.30745 18.159 9.01445 18.297 9.84245 18.156C10.1244 18.109 10.4214 18.017 10.7174 17.886C10.7274 18.216 10.7414 18.539 10.7544 18.866C10.7944 19.902 10.8214 20.859 11.1324 21.698C11.1824 21.835 11.3194 22.541 11.8594 23.164C12.3994 23.788 13.4574 24.177 14.6624 23.919C15.5124 23.737 16.5924 23.409 17.3114 22.387C18.0214 21.377 18.3414 19.928 18.4044 17.578C18.4187 17.4654 18.4371 17.3533 18.4594 17.242L18.6284 17.257H18.6484C19.5554 17.298 20.5384 17.169 21.3614 16.787C22.0894 16.45 22.6404 16.109 23.0414 15.504C23.1414 15.354 23.2514 15.174 23.2814 14.861C23.3114 14.549 23.1314 14.061 22.8354 13.836C22.2404 13.384 21.8654 13.556 21.4654 13.639C21.0704 13.7263 20.6679 13.7752 20.2634 13.785C21.4194 11.838 22.2484 9.77 22.7214 7.94C23.0014 6.86 23.1584 5.864 23.1714 4.993C23.1844 4.123 23.1134 3.351 22.5914 2.684C20.9604 0.6 18.6674 0.024 16.8924 0.004C16.8374 0.004 16.7824 0.002 16.7274 0.004L16.7284 0ZM16.6814 0.64C18.3594 0.624 20.5034 1.095 22.0414 3.062C22.3884 3.504 22.4914 4.15 22.4794 4.946C22.4664 5.741 22.3194 6.693 22.0494 7.736C21.5284 9.756 20.5424 12.111 19.1534 14.224C19.2025 14.2589 19.2555 14.2877 19.3114 14.31C19.6014 14.43 20.2614 14.533 21.5814 14.262C21.9134 14.192 22.1564 14.145 22.4084 14.337C22.4697 14.3889 22.5181 14.4543 22.5498 14.528C22.5816 14.6018 22.5958 14.6818 22.5914 14.762C22.578 14.8834 22.5332 14.9992 22.4614 15.098C22.2064 15.481 21.7034 15.844 21.0584 16.143C20.4874 16.409 19.6684 16.548 18.9424 16.556C18.5784 16.56 18.2424 16.532 17.9574 16.443L17.9394 16.436C17.8294 17.496 17.5764 19.589 17.4114 20.544C17.2794 21.314 17.0484 21.926 16.6074 22.384C16.1674 22.842 15.5444 23.118 14.7064 23.298C13.6684 23.521 12.9114 23.281 12.4234 22.87C11.9364 22.46 11.7134 21.916 11.5794 21.583C11.4874 21.353 11.4394 21.055 11.3934 20.657C11.3474 20.259 11.3134 19.772 11.2904 19.223C11.2598 18.3824 11.2498 17.5411 11.2604 16.7C10.8268 17.0971 10.288 17.361 9.70845 17.46C9.01845 17.577 8.40445 17.462 8.03745 17.37C7.85658 17.3249 7.68194 17.2577 7.51745 17.17C7.34745 17.078 7.18545 16.975 7.07745 16.772C7.01423 16.656 6.99404 16.5214 7.02045 16.392C7.05404 16.2601 7.13078 16.1432 7.23845 16.06C7.43645 15.9 7.69845 15.81 8.09345 15.727C8.81245 15.579 9.06345 15.478 9.21645 15.357C9.34645 15.253 9.49345 15.043 9.75345 14.735C9.75222 14.7217 9.75122 14.7083 9.75045 14.695C9.28505 14.6816 8.82938 14.5586 8.42045 14.336C8.27045 14.494 7.50445 15.304 6.57045 16.428C6.17745 16.898 5.74345 17.168 5.28545 17.188C4.82745 17.208 4.41345 16.976 4.06145 16.635C3.35845 15.952 2.79745 14.777 2.30845 13.449C1.82045 12.121 1.42345 10.642 1.14145 9.382C0.858449 8.122 0.691449 7.106 0.667449 6.616C0.562449 4.534 1.04945 3.131 1.88445 2.246C2.72045 1.361 3.86645 1.026 4.98345 0.962C6.98845 0.847 8.89245 1.546 9.27745 1.696C10.0194 1.192 10.9754 0.878 12.1694 0.898C12.736 0.906027 13.2997 0.979174 13.8494 1.116L13.8694 1.107C14.1119 1.02185 14.359 0.950405 14.6094 0.893C15.2884 0.734963 15.9824 0.651138 16.6794 0.643L16.6814 0.64ZM16.8334 1.31H16.6874C16.1145 1.31799 15.5438 1.3823 14.9834 1.502C16.2294 2.054 17.1704 2.904 17.8334 3.752C18.294 4.33914 18.6747 4.98477 18.9654 5.672C19.0754 5.936 19.1494 6.159 19.1914 6.332C19.2114 6.419 19.2264 6.492 19.2314 6.568C19.2354 6.61633 19.2314 6.66499 19.2194 6.712C19.2194 6.715 19.2144 6.722 19.2134 6.725C19.2434 7.601 19.0264 8.195 19.0004 9.031C18.9804 9.637 19.1354 10.349 19.1734 11.126C19.2094 11.856 19.1214 12.658 18.6474 13.446C18.6874 13.493 18.7234 13.541 18.7614 13.589C20.0154 11.614 20.9194 9.429 21.4014 7.566C21.6594 6.563 21.7964 5.654 21.8084 4.934C21.8184 4.214 21.6844 3.692 21.5134 3.474C20.1714 1.758 18.3554 1.321 16.8334 1.309V1.31ZM12.0434 1.566C10.8614 1.569 10.0134 1.926 9.37045 2.461C8.70745 3.014 8.26245 3.771 7.97045 4.546C7.62345 5.466 7.50445 6.356 7.45745 6.96L7.47045 6.952C7.82745 6.752 8.29645 6.552 8.79845 6.436C9.30045 6.321 9.84145 6.286 10.3314 6.476C10.8214 6.666 11.2264 7.112 11.3734 7.79C12.0774 11.047 11.1534 12.258 10.8134 13.172C10.6848 13.5033 10.5746 13.8415 10.4834 14.185C10.5264 14.175 10.5694 14.163 10.6124 14.159C10.8524 14.139 11.0404 14.219 11.1524 14.267C11.4944 14.409 11.7294 14.707 11.8564 15.047C11.8894 15.137 11.9134 15.232 11.9264 15.331C11.9412 15.3717 11.948 15.4148 11.9464 15.458C11.9089 16.7038 11.9135 17.9505 11.9604 19.196C11.9834 19.734 12.0174 20.208 12.0604 20.582C12.1034 20.955 12.1644 21.239 12.2034 21.335C12.3314 21.655 12.5184 22.075 12.8564 22.359C13.1944 22.643 13.6794 22.833 14.5654 22.643C15.3334 22.478 15.8074 22.249 16.1244 21.92C16.4404 21.591 16.6294 21.133 16.7504 20.432C16.9304 19.382 17.2954 16.337 17.3394 15.764C17.3194 15.332 17.3834 15 17.5214 14.747C17.6634 14.487 17.8834 14.328 18.0734 14.242C18.1684 14.199 18.2574 14.17 18.3304 14.149C18.2532 14.0379 18.1721 13.9295 18.0874 13.824C17.8135 13.4918 17.5892 13.1216 17.4214 12.725C17.3411 12.5612 17.2554 12.4001 17.1644 12.242C17.0314 12.002 16.8634 11.702 16.6874 11.365C16.3354 10.69 15.9524 9.872 15.7534 9.075C15.5554 8.279 15.5264 7.455 16.0334 6.875C16.4834 6.358 17.2734 6.145 18.4604 6.265C18.4254 6.159 18.4044 6.072 18.3454 5.932C18.0773 5.30089 17.7273 4.7078 17.3044 4.168C16.2994 2.883 14.6724 1.609 12.1584 1.568H12.0424L12.0434 1.566ZM5.40145 1.618C5.27445 1.618 5.14745 1.622 5.02145 1.629C4.01145 1.687 3.05645 1.98 2.37345 2.704C1.68945 3.428 1.23945 4.615 1.33745 6.58C1.35645 6.952 1.51745 7.994 1.79645 9.232C2.07345 10.47 2.46645 11.927 2.93845 13.214C3.41145 14.501 3.98445 15.621 4.52845 16.151C4.80245 16.416 5.04045 16.523 5.25645 16.514C5.47345 16.504 5.73445 16.379 6.05345 15.996C6.63505 15.2944 7.23869 14.6114 7.86345 13.948C7.42016 13.5631 7.0809 13.0728 6.87695 12.5223C6.673 11.9718 6.61093 11.3788 6.69645 10.798C6.79945 10.059 6.81345 9.368 6.80145 8.822C6.78945 8.29 6.75145 7.936 6.75145 7.715C6.75127 7.70867 6.75127 7.70233 6.75145 7.696V7.691L6.75045 7.685C6.74962 6.53312 6.94996 5.38995 7.34245 4.307C7.62245 3.563 8.03945 2.807 8.66445 2.195C8.05045 1.993 6.96045 1.685 5.78045 1.627C5.65389 1.6205 5.52718 1.61717 5.40045 1.617L5.40145 1.618ZM17.7994 6.9C17.1194 6.91 16.7394 7.084 16.5394 7.313C16.2564 7.638 16.2294 8.208 16.4054 8.91C16.5804 9.613 16.9424 10.4 17.2824 11.052C17.4524 11.379 17.6174 11.673 17.7504 11.912C17.8844 12.152 17.9824 12.322 18.0424 12.467C18.0974 12.601 18.1584 12.719 18.2204 12.829C18.4834 12.274 18.5304 11.729 18.5034 11.161C18.4684 10.458 18.3054 9.739 18.3294 9.011C18.3564 8.161 18.5244 7.606 18.5394 6.948C18.2941 6.91621 18.0469 6.90018 17.7994 6.9V6.9ZM9.56545 7.015C9.35802 7.01693 9.15144 7.04175 8.94945 7.089C8.54684 7.18712 8.15909 7.33845 7.79645 7.539C7.67346 7.60444 7.55636 7.68039 7.44645 7.766L7.42545 7.786C7.43145 7.932 7.46045 8.286 7.47245 8.807C7.48445 9.377 7.47045 10.104 7.36045 10.891C7.12045 12.601 8.36245 14.017 9.82045 14.019C9.90545 13.669 10.0454 13.312 10.1854 12.937C10.5914 11.843 11.3904 11.045 10.7174 7.931C10.6074 7.421 10.3894 7.215 10.0894 7.099C9.9213 7.03953 9.74376 7.01107 9.56545 7.015V7.015ZM17.4824 7.219H17.5324C17.593 7.2201 17.6534 7.22747 17.7124 7.241C17.7664 7.253 17.8124 7.271 17.8504 7.296C17.8699 7.30807 17.8867 7.3241 17.8996 7.34305C17.9125 7.36199 17.9213 7.38344 17.9254 7.406L17.9244 7.414C17.9264 7.46147 17.9142 7.50846 17.8894 7.549C17.86 7.60389 17.8229 7.65437 17.7794 7.699C17.678 7.81071 17.5421 7.88533 17.3934 7.911C17.2488 7.92849 17.1027 7.8918 16.9834 7.808C16.9346 7.77516 16.8908 7.73542 16.8534 7.69C16.8211 7.65432 16.7993 7.61035 16.7904 7.563C16.7884 7.53993 16.791 7.51667 16.7982 7.49466C16.8055 7.47265 16.8171 7.45235 16.8324 7.435C16.8653 7.39772 16.905 7.36715 16.9494 7.345C17.0454 7.291 17.1754 7.251 17.3224 7.229C17.3774 7.221 17.4314 7.217 17.4824 7.216V7.219ZM9.66245 7.387C9.71545 7.387 9.77145 7.392 9.82845 7.4C9.98145 7.421 10.1174 7.462 10.2214 7.522C10.2722 7.54847 10.3173 7.58446 10.3544 7.628C10.3747 7.65109 10.3899 7.67811 10.3992 7.70737C10.4085 7.73662 10.4116 7.76747 10.4084 7.798C10.3988 7.8555 10.3728 7.90898 10.3334 7.952C10.2925 8.00223 10.2443 8.04605 10.1904 8.082C10.0604 8.17414 9.90064 8.21443 9.74245 8.195C9.58078 8.16843 9.43281 8.0881 9.32245 7.967C9.2755 7.91824 9.23576 7.86301 9.20445 7.803C9.17149 7.7502 9.15706 7.68792 9.16345 7.626C9.17845 7.518 9.26745 7.462 9.35345 7.431C9.45287 7.39921 9.55721 7.38566 9.66145 7.391L9.66245 7.387ZM18.7224 14.73L18.7194 14.731C18.5724 14.784 18.4514 14.806 18.3494 14.851C18.2459 14.8905 18.1605 14.9667 18.1094 15.065C18.0474 15.18 17.9934 15.385 18.0094 15.731C18.0547 15.7622 18.1047 15.7858 18.1574 15.801C18.3274 15.853 18.6154 15.887 18.9354 15.882C19.5734 15.875 20.3584 15.726 20.7754 15.532C21.1175 15.3731 21.4351 15.166 21.7184 14.917H21.7174C20.3244 15.205 19.5374 15.128 19.0544 14.929C18.9345 14.8791 18.8226 14.8117 18.7224 14.729V14.73ZM10.6914 14.824H10.6704C10.6174 14.829 10.5404 14.847 10.3904 15.012C10.0434 15.402 9.92045 15.647 9.63445 15.876C9.34745 16.104 8.97445 16.226 8.22945 16.379C8.07033 16.4074 7.91544 16.4558 7.76845 16.523C7.79745 16.547 7.79445 16.553 7.83845 16.576C7.94745 16.636 8.08745 16.689 8.20045 16.718C8.52045 16.798 9.04645 16.891 9.59545 16.798C10.1444 16.704 10.7154 16.441 11.2024 15.758C11.2864 15.64 11.2954 15.466 11.2264 15.279C11.1564 15.092 11.0034 14.931 10.8954 14.886C10.8312 14.855 10.7623 14.8347 10.6914 14.826V14.824Z" fill="#336791"/>
</svg>
